<svg width="498" height="568" viewBox="0 0 498 568" fill="none" xmlns="http://www.w3.org/2000/svg">
<path fill-rule="evenodd" clip-rule="evenodd" d="M268.9 492.523C358.273 492.523 370.942 447.209 384.494 438.883C398.045 430.556 389.62 413.845 398.507 401.241C412.704 381.109 421.308 391.484 426.006 365.367C430.705 339.249 422.163 331.861 422.163 308.543C422.163 261.825 441.8 239.71 416.723 215.266C391.646 190.823 349.769 193.707 308.351 193.707C231.476 193.707 185.421 73.6048 82.888 109.637C47.5529 122.054 51.4581 138.976 59.2223 198.778C62.5939 224.747 37.1373 257.764 41.5541 287.275C49.6209 341.173 70.9258 333.861 111.123 370.252C117.867 376.357 127.703 376.294 135.054 382.555C147.38 393.053 148.172 409.376 171.215 420.385C208.37 438.138 205.219 492.523 268.9 492.523Z" fill="#39CAA9"/>
<ellipse cx="98.0441" cy="353.395" rx="22.5958" ry="24.2155" fill="white"/>
<path fill-rule="evenodd" clip-rule="evenodd" d="M89.1828 267.056C85.3308 256.093 88.6956 249.524 90.8524 240.949C92.654 233.786 106.743 222.151 113.227 234.283C115.135 237.852 114.37 241.226 118.539 244.363C128.631 251.956 123.126 236.202 123.501 232.22C123.684 230.277 122.244 225.797 122.78 223.922C123.342 221.955 126.341 219.16 126.341 215.082C126.341 211.004 120.242 209.434 118.539 208.432C103.408 199.529 93.7847 184.658 98.5802 177.11C105.262 166.595 131.447 183.14 139.315 184.658C139.417 184.677 140.822 176.317 141.97 174.403C144.266 170.573 146.804 166.855 149.831 163.755C151.188 162.366 153.026 161.509 154.833 161.231C160.24 160.4 165.772 159.718 171.188 160.471C173.102 160.737 184.499 145.704 188.943 140.855C223.039 103.65 291.39 148.988 254.133 210.595C247.285 221.918 238.529 225.519 237.398 229.521C234.886 238.411 250.699 237.242 257.398 238.191C268.841 239.813 274.482 246.513 267.378 257.996C262.952 265.149 236.99 264.784 225.617 259.611C221.396 257.691 216.18 249.296 212.19 256.183C209.442 260.928 198.724 270.994 187.227 276.689C182.038 279.259 176.128 277.71 171.699 280.005C165.466 283.236 147.065 296.802 139.315 296.799C131.51 296.796 121.41 286.091 120.242 285.389C118.461 284.318 104.683 281.251 97.8765 269.281C95.8183 265.661 90.5929 271.069 89.1828 267.056Z" fill="white"/>
<ellipse cx="221.705" cy="203.499" rx="2.3936" ry="2.6889" fill="#FFB61D"/>
<ellipse cx="204.18" cy="197.886" rx="2.324" ry="2.64856" fill="#FFB61D"/>
<ellipse cx="373.5" cy="195.616" rx="31.54" ry="35.9449" fill="white"/>
<ellipse cx="274.88" cy="399.534" rx="91.6486" ry="89.2725" fill="white"/>
<path fill-rule="evenodd" clip-rule="evenodd" d="M197.182 448.21L198.211 449.059C195.889 451.433 192.397 448.481 190.439 445.714C187.29 441.265 184.095 436.536 183.137 430.926C182.592 427.733 182.81 424.444 183.03 421.201L183.918 408.126C184.312 402.332 184.707 396.528 185.587 390.804C187.969 375.312 193.964 360.562 202.792 348.474L202.881 348.352C204.44 346.219 206.142 343.889 206.112 341.122C206.049 335.269 209.006 329.8 212.889 325.969C216.772 322.137 221.527 319.678 226.209 317.272C228.33 316.182 231.1 315.205 232.744 317.082C236.125 320.942 241.768 318.483 246.234 316.522C251.717 314.115 257.574 312.818 263.449 312.71C263.62 312.707 263.793 312.704 263.966 312.701C267.493 312.644 271.464 312.579 273.616 309.465C274.986 307.482 277.606 307.597 279.805 307.896L294.931 309.958C296.087 310.116 297.472 310.475 297.836 311.735C298.813 315.114 302.26 316.492 305.248 317.519C315.872 321.17 326.256 326.126 335.275 333.492C344.294 340.858 351.917 350.767 355.962 362.543C349.386 352.298 342.639 341.861 333.512 334.586C330.9 332.504 328.122 330.707 325.302 329.013C318.647 325.014 311.721 321.568 304.525 319.065C271.122 307.445 232.483 318.222 207.563 346.108C203.949 350.151 200.561 354.605 198.512 359.882L201.219 360.839C196.929 363.025 193.742 367.813 193.052 373.111C194.779 369.741 197.24 366.863 200.152 364.81C199.318 367.983 197.151 370.532 195.026 373.032C192.317 376.217 189.679 379.321 189.959 383.53C191.244 379.684 194.484 376.781 198.066 376.264C192.384 382.591 186.286 390.018 186.467 399.069C188.54 393.842 192.059 389.375 196.397 386.466L190.152 396.03C187.791 399.647 185.304 403.78 185.844 408.246C187.898 404.044 190.835 400.407 194.34 397.726C192.653 402.101 190.243 406.111 187.275 409.486C190.097 409.098 192.815 407.766 195.003 405.697C194.086 407.157 193.259 408.804 193.228 410.599C193.197 412.394 194.218 414.32 195.777 414.579C196.249 413.376 197.729 412.868 198.705 413.574C195.747 416.855 195.716 422.933 198.642 426.252C198.902 424.692 200.056 423.378 201.425 423.083C199.243 427.431 198.851 432.891 200.383 437.586C200.847 434.926 202.142 432.464 203.982 430.745C202.921 437.055 200.575 443.079 197.182 448.21ZM195.89 446.2C197.737 446.178 198.886 443.823 199.079 441.729C199.31 439.224 198.763 436.72 198.222 434.278L195.008 419.792C194.403 420.01 194.333 420.76 194.259 421.546C194.197 422.216 194.131 422.912 193.729 423.326C192.916 422.173 192.823 420.428 193.509 419.172C194.202 417.904 193.749 416.128 192.766 415.14C191.784 414.151 190.417 413.816 189.107 413.766C188.399 413.74 187.646 413.802 187.067 414.266C186.488 414.731 186.183 415.718 186.595 416.375C187.819 418.331 188.741 420.533 189.303 422.848C189.345 423.022 189.386 423.197 189.427 423.373C189.707 424.575 189.994 425.811 190.766 426.668C191.363 427.331 191.515 428.342 191.636 429.281L192.618 436.893C192.797 438.278 192.975 439.691 192.771 441.072C192.566 442.453 191.912 443.822 190.813 444.448L194.322 445.809C194.831 446.006 195.352 446.206 195.89 446.2ZM234.139 321.438C233.448 321.605 232.868 320.913 232.373 320.321L232.316 320.254C231.809 319.649 230.936 319.122 230.402 319.695C224.174 326.373 217.086 332.008 209.437 336.364C208.048 337.154 207.862 339.286 207.861 341.054C207.861 341.645 208.357 342.474 208.68 342.013C210.258 339.76 212.309 338.012 214.336 336.289C220.04 331.443 225.812 326.551 232.352 323.355C233.145 322.968 234.074 322.419 234.139 321.438ZM296.737 313.928C296.384 312.985 295.38 312.644 294.495 312.454C292.085 311.936 289.631 311.702 287.18 311.468C283.813 311.146 280.452 310.824 277.212 309.771C276.174 309.433 275.287 310.632 274.718 311.677C276.425 311.475 278.143 311.391 279.859 311.427C282.846 311.49 285.817 311.914 288.782 312.337C290.288 312.552 291.805 312.77 293.249 313.303C293.418 313.365 293.587 313.431 293.758 313.498C294.744 313.884 295.763 314.283 296.737 313.928ZM264.85 328.437C265.533 328.615 266.183 329.197 266.285 329.986C266.387 330.774 265.915 331.541 265.311 331.942C264.708 332.343 263.995 332.456 263.302 332.56L261.218 332.875C261.009 332.906 260.794 332.94 260.612 333.063C260.089 333.416 260.125 334.374 260.553 334.867C260.982 335.36 261.639 335.483 262.247 335.482C265.083 335.476 267.767 333.15 268.633 330.073C268.839 329.342 268.948 328.53 268.693 327.82C268.564 327.459 268.348 327.147 268.108 326.87C266.993 325.582 265.331 325.014 263.747 325.142C262.164 325.269 260.657 326.038 259.369 327.095C258.751 327.601 258.162 328.194 257.811 328.964C257.46 329.734 257.385 330.711 257.778 331.453C257.928 331.737 258.159 331.988 258.445 332.041C258.732 332.094 259.062 331.884 259.098 331.555C259.197 330.643 259.781 329.872 260.478 329.408C261.174 328.944 261.977 328.74 262.769 328.56C263.455 328.403 264.168 328.26 264.85 328.437ZM208.972 373.576C209.751 368.324 213.473 364.054 217.813 362.075C220.204 360.985 222.94 360.507 225.345 361.557C225.938 361.817 226.513 362.175 226.941 362.71C227.342 363.214 227.595 363.849 227.786 364.494C229.008 368.624 227.768 373.4 225.143 376.569C222.518 379.739 218.696 381.402 214.882 381.713C213.66 381.813 212.348 381.757 211.339 380.965C210.329 380.174 209.828 378.415 210.606 377.336C210.973 377.356 211.171 377.73 211.374 378.112C211.474 378.302 211.576 378.493 211.7 378.645C212.123 379.165 212.824 379.203 213.446 379.173C216.15 379.043 218.896 378.279 221.097 376.484C223.299 374.688 224.881 371.756 224.834 368.671C224.819 367.677 224.63 366.661 224.135 365.841C223.324 364.497 221.791 363.89 220.362 363.997C218.934 364.105 217.594 364.827 216.378 365.687C214.777 366.819 213.298 368.243 212.295 370.06C211.291 371.877 210.801 374.123 211.225 376.215C210.85 376.986 209.735 376.832 209.275 376.124C208.814 375.416 208.843 374.445 208.972 373.576ZM233.88 416.861C231.902 418.312 230.261 420.583 229.956 423.242C229.709 425.394 230.342 427.536 230.965 429.586C231.452 431.186 231.954 432.82 232.881 434.144C234.555 436.534 237.327 437.523 239.976 438.009C240.698 438.141 241.792 437.769 241.535 436.99C238.738 436.931 235.987 435.454 234.166 433.033C232.346 430.612 231.486 427.287 231.864 424.128C231.943 423.463 232.076 422.801 232.321 422.191C232.817 420.958 233.741 420.009 234.741 419.272C236.893 417.687 239.514 416.944 242.068 417.195C244.529 417.438 246.989 418.668 248.492 420.903C249.995 423.139 250.353 426.437 249.027 428.813C248.811 429.199 248.654 429.882 249.049 429.963C251.184 428.652 252.369 425.761 252.249 423.001C252.13 420.24 250.851 417.657 249.093 415.752C248.121 414.699 246.97 413.809 245.666 413.451C243.947 412.979 242.148 413.466 240.438 413.978C238.162 414.66 235.859 415.41 233.88 416.861ZM331.063 420.29C323.907 417.245 316.132 416.11 308.534 417.002C305.348 417.376 302.152 418.117 299.288 419.75C293.884 422.832 290.02 429.178 289.377 436.026C288.734 442.874 291.333 450.007 296.042 454.323C297.828 455.96 299.856 457.185 301.885 458.412C303.271 459.249 304.658 460.088 305.971 461.058C306.345 461.467 305.502 461.874 305.009 461.693C300.419 460.005 295.962 457.436 292.688 453.4C288.706 448.49 286.763 441.518 287.531 434.889C288.3 428.26 291.764 422.101 296.728 418.538C300.655 415.72 305.35 414.532 309.988 414.342C314.625 414.151 319.25 414.906 323.836 415.716C326.7 416.222 330.058 417.192 331.063 420.29ZM255.772 430.508C255.447 429.66 254.14 429.439 253.902 430.323C252.384 435.953 247.564 440.209 242.402 440.479C241.235 440.54 240.067 440.416 238.904 440.288C236.401 440.012 233.818 439.686 231.625 438.281C228.472 436.26 226.575 432.112 226.553 427.989C226.53 423.867 228.246 419.86 230.851 417C230.49 415.846 228.937 416.403 228.166 417.257C223.893 421.991 223.16 430.161 226.158 436.03C229.156 441.898 235.44 445.188 241.363 444.442C247.285 443.696 252.633 439.176 255.386 433.154C255.762 432.333 256.097 431.357 255.772 430.508ZM218.682 459.014C217.717 463.231 217.625 467.704 218.416 471.968C218.771 473.88 218.81 474.933 218.817 475.13C218.818 475.153 218.818 475.164 218.819 475.164C218.819 475.164 218.82 475.153 218.821 475.13C218.829 474.933 218.871 473.875 219.233 471.96C220.043 467.689 219.85 463.176 218.682 459.014ZM223.807 461.565C222.437 464.839 222.607 468.891 224.245 472.002C224.613 472.7 224.893 473.268 225.099 473.687C225.374 474.247 225.518 474.541 225.569 474.526C225.626 474.509 225.568 474.114 225.445 473.283L225.445 473.282L225.445 473.28L225.444 473.278L225.444 473.277C225.396 472.947 225.337 472.548 225.271 472.076L223.807 461.565ZM227.667 465.746C227.085 467.837 227.513 470.254 228.761 471.924C230.035 473.629 230.451 474.176 230.063 471.98C229.667 469.739 228.844 467.598 227.667 465.746ZM339.357 441.966C337.607 449.973 332.016 456.039 326.596 461.51C326.844 462.119 327.645 461.901 328.158 461.572C333.648 458.05 338.09 452.311 340.117 445.513C342.144 438.715 341.64 430.904 338.44 424.719C338.172 424.2 337.83 423.647 337.311 423.532C336.792 423.416 336.194 424.102 336.499 424.594C339.574 429.558 340.645 436.069 339.357 441.966ZM260.424 369.671C260.411 368.404 260.427 367.033 261.098 366.024C262.022 364.633 263.775 364.487 265.305 364.463C265.988 364.452 266.68 364.442 267.344 364.622C268.759 365.006 269.886 366.196 270.89 367.395C271.113 367.66 271.349 367.987 271.294 368.349C271.226 368.798 270.733 369.004 270.342 368.912C270.081 368.851 269.848 368.704 269.614 368.556C269.496 368.481 269.378 368.407 269.257 368.343C267.85 367.607 266.196 368.414 264.932 369.433C264.734 369.593 264.519 369.799 264.515 370.076C264.51 370.355 264.719 370.571 264.916 370.735C266.624 372.161 268.81 372.821 270.913 372.546C271.416 372.48 272.007 372.27 272.137 371.713C272.188 371.495 272.169 371.238 272.149 370.991C272.117 370.577 272.087 370.187 272.393 370.044C272.552 369.969 272.732 370.023 272.897 370.077C274.036 370.455 275.367 371.061 275.587 372.389C275.651 372.772 275.606 373.172 275.498 373.543C275.185 374.628 274.311 375.475 273.321 375.655C272.882 375.734 272.433 375.691 271.989 375.648C270.831 375.534 269.671 375.421 268.523 375.21C266.416 374.823 264.354 374.107 262.415 373.089C261.743 372.736 261.043 372.301 260.702 371.552C260.443 370.982 260.431 370.313 260.424 369.671ZM303.716 338.437C303.039 336.35 301.402 334.703 299.501 334.196C298.913 334.039 298.249 334 297.75 334.389C297.251 334.777 297.079 335.724 297.555 336.149C298.016 336.56 297.738 337.529 297.174 337.712C296.611 337.895 296.005 337.459 295.723 336.873C295.442 336.288 295.412 335.592 295.408 334.924C295.404 334.033 295.475 333.039 296.053 332.439C296.273 332.21 296.547 332.063 296.819 331.924C297.944 331.351 299.188 330.865 300.391 331.173C301.536 331.466 302.45 332.43 303.249 333.411C303.904 334.215 304.523 335.057 305.104 335.932C305.616 336.703 306.109 337.525 306.301 338.467C306.493 339.409 306.327 340.502 305.689 341.139C305.064 341.763 304.103 341.816 303.344 341.431C302.674 341.09 302.102 340.342 302.152 339.508C302.202 338.673 303.101 337.982 303.716 338.437ZM309.762 397.106C311.442 397.051 313.008 395.576 313.371 393.705C313.592 392.568 313.319 391.215 312.45 390.603C311.814 390.156 311.015 390.189 310.27 390.243C309.238 390.319 308.167 390.421 307.271 391.009C306.374 391.596 305.708 392.812 305.988 393.946C306.445 395.79 308.082 397.16 309.762 397.106ZM309.978 394.342C309.653 394.442 309.19 394.347 309.16 393.965C309.148 393.806 309.223 393.656 309.309 393.53C309.787 392.825 310.696 392.551 311.417 392.895C311.166 393.595 310.618 394.146 309.978 394.342ZM310.846 366.006C310.572 365.286 311.102 364.447 311.747 364.171C312.263 363.95 312.823 363.973 313.379 363.996C313.517 364.002 313.656 364.008 313.793 364.01C314.481 364.019 315.241 363.889 315.688 363.292C315.845 363.081 315.952 362.772 315.832 362.531C315.707 362.28 315.411 362.236 315.157 362.221C313.403 362.118 311.332 362.179 310.32 363.816C310.103 364.168 309.571 364.049 309.368 363.686C309.164 363.324 309.211 362.848 309.327 362.438C309.741 360.971 310.93 359.904 312.229 359.477C313.528 359.049 314.923 359.184 316.241 359.524C316.686 359.639 317.148 359.79 317.472 360.155C317.73 360.444 317.874 360.84 317.968 361.238C318.417 363.141 317.754 365.321 316.367 366.499C314.981 367.676 312.959 367.778 311.487 366.744C311.224 366.559 310.969 366.328 310.846 366.006ZM304.833 399.634C305.647 400.747 306.613 401.758 307.783 402.325C310.149 403.469 313.173 402.412 314.568 399.952C315.076 399.056 315.304 397.69 314.552 397.054C313.348 399.937 309.857 401.211 307.408 399.659C306.939 399.362 306.513 398.982 306.125 398.559C304.364 396.638 303.446 393.5 304.479 390.983C304.815 390.162 305.333 389.454 305.898 388.818C307.132 387.43 308.897 386.293 310.544 386.911L310.583 386.926L310.624 386.942C310.666 386.959 310.707 386.976 310.748 386.993L310.748 386.993L310.748 386.994L310.749 386.994C310.979 387.09 311.211 387.187 311.453 387.171C311.767 387.15 312.096 386.83 312.015 386.483C311.991 386.381 311.935 386.292 311.877 386.208C310.859 384.73 308.862 384.274 307.423 385.19C305.71 386.281 303.97 387.565 303.059 389.545C301.576 392.769 302.787 396.84 304.833 399.634ZM332.112 349.916C332.037 350.039 332.056 350.211 332.074 350.374C332.095 350.569 332.115 350.753 331.975 350.832C331.463 351.12 330.849 351.09 330.303 350.899C328.811 350.378 327.811 348.818 326.967 347.322C326.473 346.447 325.982 345.518 325.902 344.482C325.823 343.446 326.287 342.28 327.163 341.987C328.139 341.66 329.096 342.488 329.856 343.259C330.714 344.128 331.589 345.025 332.12 346.185C332.65 347.345 332.768 348.843 332.112 349.916ZM328.869 346.035C329.079 346.268 329.194 346.581 329.31 346.894C329.423 347.203 329.537 347.512 329.742 347.744C330.001 348.039 330.394 348.171 330.752 348.083C330.082 346.9 329.305 345.796 328.437 344.793C328.205 344.872 328.186 345.264 328.325 345.49C328.41 345.627 328.528 345.728 328.647 345.829C328.724 345.894 328.801 345.96 328.869 346.035ZM201.175 452.911C201.092 454.464 201.197 456.262 202.287 457.198C202.65 456.967 202.625 456.375 202.58 455.903C202.298 453.002 203.088 450.205 203.883 447.39C204.453 445.374 205.025 443.35 205.208 441.27C205.261 440.667 205.12 439.841 204.588 439.818C204.19 439.8 203.933 440.279 203.772 440.695C202.283 444.55 201.399 448.707 201.175 452.911ZM306.929 396.922C308.159 397.542 309.522 398.174 310.81 397.729C311.322 397.552 311.777 397.215 312.226 396.882C312.224 397.739 311.577 398.459 310.856 398.704C310.135 398.95 309.359 398.818 308.624 398.637C307.807 398.435 306.808 397.864 306.929 396.922ZM209.627 468.483C209.941 467.846 209.994 467.091 210.041 466.362L210.412 460.558C210.594 457.709 210.777 454.85 210.613 452C210.593 451.641 210.561 451.262 210.377 450.969C210.193 450.676 209.804 450.52 209.552 450.737C209.367 450.897 209.32 451.187 209.288 451.449C208.885 454.745 208.669 458.07 208.643 461.397C208.624 463.81 208.721 466.303 209.627 468.483ZM204.061 463.495C203.734 463.809 203.191 463.533 203.012 463.091C202.832 462.65 202.904 462.135 202.981 461.656C203.787 456.647 204.702 451.66 205.723 446.702C205.749 446.578 205.776 446.449 205.847 446.35C206.116 445.971 206.659 446.353 206.85 446.789C207.318 447.858 207.094 449.134 206.859 450.299L204.342 462.813C204.292 463.062 204.232 463.33 204.061 463.495ZM212.78 463.718C212.639 465.596 212.887 467.482 213.133 469.346C213.221 470.01 213.64 470.892 214.167 470.59L215.192 458.09C215.234 457.581 215.262 457.017 214.986 456.616C214.709 456.214 214.008 456.23 213.92 456.731L213.164 461.017C213.006 461.912 212.848 462.809 212.78 463.718ZM318.699 425.406C315.779 423.692 312.224 423.017 309.191 424.452C306.925 425.524 300.522 430.155 299.669 436.091C299.099 440.065 299.105 444.125 300.325 447.962L300.522 448.564C300.885 449.65 302.043 450.899 302.69 450.001C300.8 446.106 300.447 441.284 301.744 437.086C303.042 432.889 305.969 429.384 309.584 427.699C310.344 427.345 311.139 427.066 311.957 426.978C313.611 426.799 315.262 427.41 316.742 428.274C319.926 430.133 323.871 433.225 325.387 436.918C326.848 440.479 327.924 444.726 326.602 448.357C325.279 451.988 316.593 454.615 316.593 454.615L317.554 456.614C317.554 456.614 322.417 455.521 325.387 453.056C337.854 442.707 321.492 427.045 318.699 425.406Z" fill="#00160A"/>
<path fill-rule="evenodd" clip-rule="evenodd" d="M98.3057 374.308C93.8964 374.848 89.2261 373.685 85.7833 370.499C83.345 368.243 81.6317 365.105 80.4295 361.798C79.1243 358.208 78.3739 354.356 78.223 350.474C78.1662 349.013 78.1967 347.524 78.5736 346.125C79.1939 343.824 80.6877 341.976 82.2126 340.31C85.4567 336.764 89.2698 333.528 93.7168 332.783C96.7471 332.275 99.8296 332.967 102.796 333.837C105.125 334.521 107.452 335.326 109.548 336.673C114.178 339.648 117.386 345.322 117.851 351.357C118.315 357.392 117.744 361.39 110.598 368.888C106.885 371.651 102.715 373.769 98.3057 374.308ZM106.082 355.365C105.366 355.622 104.654 356.077 103.915 355.929C102.407 355.626 102.137 353.268 102.472 351.565C103.431 346.689 106.413 342.384 110.351 340.188C109.459 338.345 107.091 338.21 105.416 339.096C103.741 339.982 102.432 341.578 100.812 342.588C100.006 343.091 99.0509 343.446 98.174 343.134C96.7311 342.619 96.1803 340.465 96.6526 338.828C97.125 337.191 98.304 335.969 99.436 334.827C95.334 334.991 91.2751 336.394 87.7844 338.855C85.0518 340.781 82.4597 343.939 82.8223 347.578C85.0817 345.505 87.7345 343.992 90.5446 343.174C91.1406 343.001 91.8887 342.913 92.2617 343.471C92.5442 343.893 92.4631 344.501 92.2821 344.99C91.3839 347.418 88.7424 348.232 87.104 350.091C86.8889 350.335 86.6826 350.617 86.6305 350.958C86.5284 351.626 87.087 352.235 87.6738 352.346C88.2606 352.458 88.8497 352.215 89.4064 351.975C90.5624 351.478 91.7184 350.981 92.8744 350.484C93.7112 350.124 94.7048 349.781 95.449 350.346C96.2189 350.931 96.2915 352.262 95.8563 353.192C95.4212 354.123 94.6225 354.747 93.8539 355.334C92.0012 356.749 90.1485 358.164 88.2958 359.58C86.7447 360.764 85.0068 362.362 85.1543 364.483C85.2931 366.48 87.2207 367.837 88.9748 367.709C90.7289 367.581 92.2726 366.358 93.5672 365.003C94.8618 363.648 96.0303 362.101 97.5337 361.063C98.5147 360.386 99.9145 360.01 100.711 360.95C101.327 361.677 101.268 362.844 101.037 363.819C100.371 366.629 98.57 369.062 96.2516 370.283C98.1378 370.779 100.105 370.872 102.021 370.557C103.113 370.378 104.245 370.032 105.035 369.154C105.825 368.275 106.131 366.729 105.445 365.742C104.423 364.271 104.464 362.118 105.117 360.395C105.77 358.673 106.937 357.282 108.08 355.93C107.753 355.162 106.797 355.109 106.082 355.365ZM114.814 358.705C115.841 355.999 115.879 352.939 115.618 350.006C115.331 346.762 114.338 343.053 111.657 341.916C107.727 343.775 104.695 347.922 103.799 352.662C103.724 353.06 103.665 353.488 103.802 353.864C103.94 354.24 104.348 354.515 104.665 354.326C105.751 353.677 107.088 353.309 108.192 353.917C109.296 354.524 109.834 356.422 108.94 357.378C107.952 358.435 106.937 359.535 106.404 360.954C105.871 362.374 105.948 364.212 106.951 365.25C107.706 366.03 107.708 367.561 106.955 368.343C109.094 367.631 110.618 365.535 112.005 363.548C113.065 362.029 114.138 360.487 114.814 358.705ZM90.1926 344.712C87.9678 345.764 85.8082 346.995 83.7353 348.393C83.2424 348.725 82.7442 349.077 82.3837 349.584C81.897 350.269 81.712 351.163 81.5616 352.028C81.0757 354.821 80.8252 357.829 81.8545 360.424C82.1831 361.252 82.6322 362.01 83.0791 362.763C83.2109 362.985 83.3607 363.223 83.5868 363.297C83.8128 363.372 84.1114 363.164 84.0583 362.903C83.8947 362.098 84.43 361.34 84.9582 360.773C88.0522 357.454 92.2204 355.549 95.0027 351.889C94.5806 351.319 93.7801 351.587 93.1782 351.88C91.7449 352.577 90.2669 353.155 88.76 353.609C87.9826 353.842 87.1163 354.032 86.4069 353.601C85.3685 352.97 85.1995 351.244 85.748 350.058C86.2964 348.872 87.339 348.106 88.3445 347.409C89.35 346.713 90.4049 345.986 91.0082 344.835C90.8985 344.507 90.4769 344.578 90.1926 344.712ZM97.8069 366.946C98.7901 366.046 99.8524 364.984 99.9596 363.552C100.016 362.803 99.5942 361.887 98.9377 361.959C98.7359 361.981 98.5516 362.095 98.3776 362.213C95.5185 364.16 93.6368 367.966 90.4115 368.912C91.3229 369.377 92.2733 369.743 93.2454 370.003C93.5349 370.081 93.8363 370.149 94.1275 370.08C94.4662 370 94.7497 369.746 95.0194 369.499C95.9486 368.648 96.8777 367.797 97.8069 366.946ZM100.466 335.828C99.8296 336.63 99.1934 337.432 98.5572 338.234C98.0532 338.869 97.5126 339.708 97.7931 340.502C97.9998 341.087 98.61 341.383 99.162 341.334C99.7139 341.286 100.217 340.964 100.679 340.618C102.329 339.384 103.814 337.704 105.739 337.212C104.404 336.657 103.07 336.103 101.735 335.549C101.457 335.433 101.147 335.318 100.874 335.447C100.71 335.524 100.585 335.678 100.466 335.828Z" fill="#00160A"/>
<path fill-rule="evenodd" clip-rule="evenodd" d="M125.301 240.034C125.135 243.834 122.562 247.949 119.247 247.5C117.751 245.528 116.58 243.08 115.422 240.66C113.199 236.014 111.027 231.474 106.699 230.612C102.448 229.765 98.4898 233.328 95.8424 237.212C92.0081 242.836 89.5304 249.65 88.7493 256.716C88.2901 260.871 89.7851 266.632 93.4373 266.175C97.6091 265.653 100.576 269.393 103.594 273.196C106.386 276.717 109.223 280.292 113.098 280.594C117.713 280.953 121.482 284.104 125.297 287.293C127.845 289.423 130.414 291.57 133.269 292.914C138.64 295.443 144.833 294.954 150.316 292.758C155.798 290.562 160.677 286.779 165.295 282.758L165.537 282.547C168.058 280.35 170.696 278.05 173.831 277.566C189.858 275.092 204.766 264.378 213.632 248.961C226.202 260.413 243.777 264.327 259.205 259.111C261.823 258.226 264.457 257.039 266.398 254.85C268.34 252.662 269.44 249.264 268.486 246.348C267.443 243.16 264.324 241.453 261.36 241.042C259.735 240.817 258.098 240.884 256.459 240.95C255.108 241.005 253.756 241.06 252.41 240.952C244.261 240.295 237.475 233.889 231.304 227.787C240.245 224.661 247.494 216.811 252.28 207.655C257.067 198.499 259.632 188.069 261.581 177.645C262.606 172.159 263.368 165.98 260.618 161.329C259.388 159.247 257.583 157.725 255.785 156.208C253.76 154.5 251.743 152.799 250.562 150.313C248.291 145.531 243.865 142.695 239.667 140.112C228.68 133.352 216.061 126.394 204.22 130.909C199.608 132.667 195.624 136.037 191.74 139.372C185.289 144.91 178.379 151.407 177.151 160.504C166.596 155.122 152.941 159.42 146.306 170.212C144.788 172.681 143.623 175.403 142.459 178.122L142.459 178.122C141.089 181.324 139.72 184.521 137.78 187.297C129.986 183.25 122.045 179.571 113.985 176.274C110.411 174.812 106.142 173.52 103.062 176.051C100.592 178.08 99.8348 182.064 100.56 185.433C101.285 188.803 103.22 191.66 105.295 194.199C109.797 199.707 115.205 204.249 121.154 207.52C121.346 207.626 121.539 207.731 121.733 207.836C123.596 208.847 125.511 209.887 126.751 211.743C128.12 213.792 128.205 217.222 126.285 218.582C123.45 220.59 122.928 225.097 123.509 228.844C123.708 230.124 123.999 231.392 124.29 232.659C124.851 235.099 125.411 237.532 125.301 240.034ZM202.284 260.07C195.139 268.62 185.085 273.622 174.804 275.085C164.523 276.547 154.026 274.646 144.205 270.884C146.847 270.883 148.757 266.941 147.352 264.392C141.939 271.582 133.688 274.95 125.825 278.025C118.722 280.803 110.231 278.785 105.014 272.63C99.7959 266.474 98.3839 256.374 102.053 248.906C103.648 245.66 106.353 242.834 109.606 242.516C112.858 242.197 116.36 245.271 116.059 248.975C114.249 248.617 112.344 250.369 112.27 252.46C119.271 251.601 125.854 247.028 129.732 240.33C131.071 238.018 132.089 235.5 133.107 232.979L133.107 232.979C133.791 231.287 134.475 229.594 135.257 227.961C137.203 223.898 139.998 220.024 143.872 218.628C146.981 217.507 150.341 218.129 153.554 218.76L167.829 221.565C168.897 220.514 167.167 218.829 165.785 218.501C161.324 217.438 156.801 216.784 152.277 216.129L152.277 216.129C148.082 215.522 143.886 214.915 139.74 213.982C131.122 212.044 122.46 208.5 116.188 201.492C120.443 198.703 123.68 193.963 125.008 188.577C125.277 187.488 124.636 185.698 123.86 186.403C122.973 189.9 122.012 193.546 119.789 196.159C117.567 198.773 113.666 199.921 111.151 197.678C107.885 194.768 104.452 191.593 103.161 187.104C101.87 182.614 103.912 176.585 108.03 176.035C109.878 175.788 111.684 176.658 113.388 177.509L130.581 186.098C135.698 188.655 140.892 191.236 146.419 192.164C150.3 192.815 154.247 192.633 158.167 192.448L169.279 191.926C169.733 191.905 170.199 191.88 170.617 191.677C171.734 191.134 172.112 189.58 172.359 188.226C175.34 171.828 179.347 154.522 190.185 143.214C195.035 138.154 201.076 134.591 207.502 133.002C213.836 131.435 220.824 131.896 226.277 135.888C217.13 136.656 208.247 141.052 201.51 148.146C198.68 144.703 193.412 147.517 191.154 151.473C187.655 157.604 187.718 166.121 191.309 172.183C194.331 177.286 195.452 183.375 196.576 189.478C197.608 195.087 198.643 200.708 201.158 205.586C205.136 213.304 212.545 218.258 220.283 219.794C228.021 221.33 236.042 219.726 243.397 216.582C235.166 225.939 222.017 229.175 211.132 224.524C210.338 224.184 209.549 223.806 208.759 223.427C206.257 222.226 203.748 221.022 201.065 221.058C202.637 222.954 204.644 224.378 206.831 225.148C204.309 229.976 201.663 234.719 198.898 239.371C198.544 239.966 198.141 240.6 197.536 240.801C196.861 241.025 196.157 240.642 195.542 240.255C190.457 237.052 185.9 232.766 182.175 227.685L174.723 238.015C178.547 243.342 183.018 248.065 187.968 252.007C181.38 261.283 171.398 267.325 160.966 268.351C171.765 268.978 182.697 263.205 189.26 253.411C193.414 256.07 197.779 258.301 202.284 260.07ZM236.435 169.24C238.822 166.274 239.706 162.039 239.502 158.022C239.298 154.005 238.113 150.142 236.801 146.406C240.219 145.945 243.691 147.414 246.414 149.814C249.137 152.214 251.182 155.48 252.86 158.905C254.893 163.057 256.452 167.547 257.129 172.24C258.722 183.288 255.321 194.554 250.48 204.297C249.54 206.189 248.528 208.067 247.156 209.578C245.774 211.099 244.074 212.192 242.332 213.114C235.144 216.921 226.875 218.019 219.111 216.199C224.067 211.496 227.567 205.017 229.796 198.12C232.026 191.223 233.046 183.893 233.634 176.574L233.637 176.533C233.785 174.687 233.941 172.747 234.864 171.223C235.169 170.719 235.547 170.281 235.926 169.843L235.926 169.843C236.098 169.644 236.27 169.445 236.435 169.24ZM227.466 199.725C225.327 205.427 222.014 210.662 217.522 214.16C216.996 214.57 216.432 214.965 215.799 215.05C215.24 215.124 214.681 214.949 214.144 214.756C210.325 213.382 206.717 210.947 204.267 207.337C203.378 206.027 202.652 204.582 202.004 203.099C197.289 192.3 196.827 179.199 200.767 168.004C200.955 167.469 201.224 166.868 201.72 166.756C202.362 166.611 202.854 167.359 203.214 167.981C206.157 173.064 211.661 175.637 217 175.904C222.338 176.17 227.59 174.441 232.652 172.491C231.73 175.062 231.495 177.863 231.262 180.638V180.638C231.233 180.987 231.203 181.336 231.173 181.684C230.63 187.854 229.605 194.024 227.466 199.725ZM226.379 146.76C229.111 146.052 232.299 145.857 234.386 147.987C235.06 148.675 235.561 149.557 235.973 150.475C238.558 156.233 237.546 163.817 233.574 168.437C228.984 173.779 221.717 174.66 215.18 174.026C212.834 173.798 210.422 173.387 208.419 171.976C205.828 170.151 204.294 166.934 202.875 163.863C209.174 155.841 217.168 149.146 226.379 146.76ZM248.473 243.597C247.616 246.063 246.751 248.563 246.47 251.196C246.19 253.83 246.555 256.656 247.96 258.77C236.299 259.506 224.448 255.407 215.111 247.411C218.122 242.555 220.5 237.19 222.142 231.547C222.791 229.317 225.267 228.387 227.278 228.903C229.129 229.379 230.683 230.732 232.199 232.052L232.203 232.056L232.412 232.238L232.59 232.392C237.554 236.687 243.024 240.15 248.473 243.597ZM166.984 277.277C165.145 279.636 162.947 281.595 160.701 283.443C156.015 287.299 150.904 290.805 145.208 291.925C136.86 293.567 127.84 289.463 122.78 281.721L140.988 273.98C141.424 273.795 141.876 273.606 142.34 273.636C142.603 273.653 142.855 273.739 143.108 273.825C143.276 273.882 143.445 273.94 143.617 273.977C144.202 274.103 144.791 273.992 145.384 273.881C145.752 273.812 146.122 273.742 146.492 273.73C147.855 273.683 149.107 274.393 150.346 275.095L150.347 275.096C150.662 275.274 150.975 275.452 151.289 275.616C156.118 278.147 161.685 277.737 166.984 277.277ZM140.693 188.49C140.565 188.163 140.7 187.786 140.836 187.463C144.564 178.563 149.497 170.319 155.406 163.113C159.563 169.691 162.329 177.401 163.407 185.412C163.623 187.014 163.39 189.229 161.979 189.429C155.217 190.389 148.337 190.259 141.606 189.042C141.251 188.978 140.84 188.865 140.693 188.49ZM166.161 187.941C164.768 179.218 161.878 170.808 157.701 163.328C161.237 161.207 165.416 161.172 169.411 161.186C171.935 161.195 174.689 161.297 176.612 163.159L171.624 179.932C170.777 182.78 169.92 185.707 170.026 188.711L166.873 188.769C166.761 188.771 166.645 188.772 166.542 188.723C166.289 188.603 166.21 188.247 166.161 187.941ZM206.73 230.866C207.568 229.242 208.366 227.507 208.45 225.626C212.223 227.56 216.377 228.518 220.513 228.408C221.162 228.391 221.139 229.531 220.872 230.206C220.067 232.249 219.261 234.293 218.329 236.265C217.373 238.288 216.287 240.227 215.203 242.165L212.603 246.809C212.247 247.445 211.88 248.095 211.351 248.548C209.932 249.763 207.906 249.179 206.287 248.35C203.601 246.974 201.128 245.059 199.018 242.718C201.949 239.095 204.539 235.114 206.73 230.866ZM109.178 234.878C110.428 236.315 111.245 238.155 112.041 239.963L108.292 240.573C107.042 240.776 105.761 240.99 104.657 241.687C103.582 242.364 102.754 243.45 102.025 244.576C98.9751 249.284 97.2849 255.117 97.2742 260.97C97.2703 263.083 95.0782 264.591 93.284 264.055C91.4899 263.52 90.271 261.489 89.9609 259.405C89.6507 257.32 90.0875 255.19 90.6353 253.17C92.5631 246.063 96.0115 239.351 101.113 234.712C102.088 233.825 103.165 232.996 104.397 232.771C106.15 232.452 107.928 233.442 109.178 234.878ZM266.641 246.775C267.075 247.41 267.396 248.183 267.377 248.988C267.351 250.028 266.773 250.939 266.151 251.7C262.531 256.12 256.968 257.625 251.699 258.335C251.352 258.382 250.988 258.424 250.662 258.278C250.394 258.159 250.179 257.924 249.988 257.679C248.717 256.05 248.214 253.773 248.317 251.596C248.42 249.419 249.079 247.322 249.9 245.353C250.073 244.938 250.273 244.503 250.625 244.28C250.907 244.103 251.242 244.089 251.564 244.079L257.94 243.888C259.51 243.842 261.097 243.796 262.634 244.165C264.171 244.534 265.676 245.362 266.641 246.775ZM195.575 178.11C192.977 172.623 191.033 166.735 189.813 160.657L190.863 157.461C192.162 154.596 193.799 151.93 195.716 149.559C196.497 148.593 197.851 148.486 198.928 148.951C200.006 149.417 200.873 150.342 201.71 151.246L205.474 155.31C205.586 155.431 205.703 155.562 205.741 155.732C205.811 156.053 205.578 156.347 205.368 156.575C203.605 158.485 202.038 160.639 200.782 163.013C198.884 166.602 197.725 170.624 196.581 174.606L195.575 178.11ZM205.197 147.295C212.862 142.616 221.246 138.213 229.892 139.266C234.413 139.816 238.737 141.866 242.502 144.769C231.716 141.609 219.693 144.524 210.969 152.413C209.621 153.633 207.598 154.957 206.397 153.551C206.089 153.19 205.887 152.685 205.691 152.192L205.691 152.192C205.376 151.402 205.075 150.647 204.37 150.573C203.698 150.502 203.399 149.463 203.684 148.765C203.969 148.068 204.602 147.658 205.197 147.295ZM184.139 232.871C185.652 234.527 187.318 235.99 188.98 237.449L195.696 243.344C193.628 245.421 191.605 247.555 189.628 249.745C184.923 246.567 180.724 242.421 177.293 237.566C179.171 235.337 180.974 233.026 182.696 230.639C182.966 231.52 183.549 232.224 184.139 232.871ZM140.96 216.927C137.424 220.075 133.768 223.389 131.823 227.997C131.443 228.898 131.129 229.846 130.816 230.792C130.149 232.803 129.485 234.808 128.193 236.339C127.621 236.147 127.396 235.378 127.256 234.716L125.91 228.338C125.729 227.477 125.546 226.593 125.649 225.715C125.752 224.842 126.13 224.047 126.501 223.274L130.449 215.052C130.537 214.868 130.628 214.68 130.769 214.547C131.118 214.216 131.635 214.321 132.076 214.445L140.96 216.927ZM198.405 245.172C200.816 247.998 203.813 250.17 207.081 251.46C207.692 250.805 208.873 251.166 209.114 252.082C207.99 253.745 206.755 255.311 205.425 256.763C204.83 257.411 203.878 257.275 203.077 257.065C199.16 256.04 195.388 254.304 191.945 251.942C191.715 251.784 191.456 251.559 191.479 251.254C191.494 251.049 191.636 250.889 191.769 250.749L196.602 245.676C197.109 245.145 197.924 244.609 198.405 245.172ZM260.113 174.304C260.068 174.925 259.991 175.619 259.565 176.01C259.561 171.127 258.499 166.249 256.498 161.932C256.135 161.148 255.742 160.383 255.304 159.651L255.26 159.578C255.218 159.508 255.176 159.438 255.133 159.368C254.692 158.642 254.24 157.899 254.133 157.032L259.312 163.197C259.788 163.765 260.278 164.357 260.503 165.099C260.721 165.814 260.669 166.595 260.614 167.35L260.113 174.304ZM254.162 166.468L252.989 164.783C251.699 162.93 250.116 160.906 248.04 160.903C246.835 160.902 245.727 161.605 244.682 162.288L243.058 163.349C242.614 163.639 242.158 163.941 241.846 164.402C240.944 165.732 241.602 167.674 242.454 169.046C243.044 169.995 243.751 170.906 244.69 171.363C245.904 171.954 247.3 171.693 248.573 171.293C250.315 170.745 251.999 169.955 253.575 168.945C254.079 168.622 254.635 168.15 254.61 167.491C254.595 167.104 254.374 166.772 254.162 166.468ZM243.916 167.768C243.714 167.402 243.506 167.011 243.502 166.579C243.496 165.733 244.236 165.166 244.888 164.761L247.202 163.322C247.552 163.104 247.917 162.882 248.314 162.851C248.712 162.821 249.155 163.039 249.288 163.467C249.683 164.73 250.656 165.738 251.797 166.066C252.166 166.172 252.285 166.754 252.11 167.14C251.936 167.526 251.578 167.752 251.237 167.945C250.017 168.635 248.741 169.197 247.432 169.623C246.907 169.794 246.351 169.943 245.82 169.799C244.951 169.564 244.391 168.63 243.916 167.768ZM227.449 180.793C225.153 181.097 224.716 185.815 225.783 188.331C226.002 188.848 226.345 189.381 226.846 189.454C227.701 189.578 228.174 188.375 228.363 187.416L228.367 187.393L228.367 187.393L228.368 187.393C228.617 186.129 229.731 180.49 227.449 180.793ZM215.609 186.981C216.068 185.76 216.221 184.393 216.045 183.08C215.964 182.47 215.803 181.851 215.445 181.388C215.088 180.925 214.497 180.655 213.987 180.864C213.526 181.053 213.236 181.567 213.018 182.067C212.248 183.832 211.941 185.855 212.146 187.812C212.242 188.723 213.249 189.22 214.013 188.933C214.777 188.645 215.292 187.824 215.609 186.981ZM222.376 184.188C222.733 183.851 223.183 184.463 223.327 184.964C223.802 186.61 224.196 188.288 224.505 189.985C224.7 191.058 224.862 192.172 224.654 193.242C224.36 194.75 223.354 195.977 222.188 196.762C221.021 197.548 219.692 197.955 218.383 198.353C218.037 198.458 217.602 198.533 217.378 198.214C217.189 197.943 217.282 197.519 217.498 197.276C217.71 197.037 218.005 196.926 218.288 196.82L218.305 196.814C220.347 196.049 222.529 194.67 223.004 192.282C223.265 190.969 222.947 189.649 222.628 188.325C222.337 187.118 222.045 185.907 222.189 184.691C222.211 184.506 222.25 184.307 222.376 184.188ZM208.12 178.816C207.582 177.967 208.012 176.678 208.792 176.124C209.572 175.571 210.557 175.578 211.468 175.712C212.555 175.872 213.625 176.188 214.644 176.648C214.861 176.746 215.095 176.871 215.19 177.114C215.367 177.564 214.91 178.056 214.477 178.055C214.129 178.055 213.814 177.864 213.502 177.675C213.426 177.63 213.351 177.584 213.276 177.541C211.574 176.579 209.318 177.137 208.12 178.816ZM227.729 178.524C228.537 178.37 229.395 178.583 230.074 179.106C230.358 179.324 230.765 178.957 230.766 178.566C230.768 178.176 230.512 177.847 230.243 177.606C229.663 177.086 228.941 176.775 228.204 176.727C227.729 176.697 227.202 176.802 226.896 177.217C226.59 177.633 226.682 178.413 227.141 178.558C227.305 178.609 227.477 178.574 227.646 178.54L227.69 178.531L227.729 178.524ZM217.694 202.465C217.922 202.318 218.222 202.574 218.256 202.869C218.29 203.164 218.142 203.447 217.973 203.674C217.125 204.814 215.664 205.165 214.374 204.898C213.084 204.631 211.928 203.84 210.839 203.007C210.328 202.614 209.823 202.209 209.327 201.792C208.813 201.359 208.265 200.83 208.204 200.104C208.142 199.379 208.957 198.649 209.423 199.148C210.566 200.375 211.736 201.623 213.159 202.383C214.581 203.142 216.326 203.345 217.694 202.465ZM193.204 208.278C188.438 196.473 186.45 183.23 187.501 170.291C187.519 170.07 187.544 169.833 187.672 169.666C187.853 169.43 188.224 169.44 188.395 169.685C188.334 176.803 188.275 183.963 189.295 190.985C190.314 198.008 192.479 204.955 196.432 210.467C196.55 210.631 196.67 210.795 196.79 210.959C197.47 211.888 198.155 212.826 198.541 213.946C195.971 213.889 194.278 210.939 193.204 208.278ZM197.878 154.971C197.79 154.863 197.687 154.767 197.568 154.708C197.224 154.539 196.821 154.713 196.52 154.966C195.321 155.978 195.316 158.344 196.512 159.362C197.095 158.796 197.693 158.208 198.035 157.427C198.377 156.645 198.397 155.613 197.878 154.971ZM208.22 167.437C209.512 168.633 210.986 169.575 212.555 170.21C217.619 172.256 223.31 170.971 228.197 168.425C228.943 168.037 229.896 168.242 230.467 168.914C227.329 171.462 223.485 172.863 219.632 172.862C218.782 172.862 217.934 172.796 217.087 172.711C215.355 172.539 213.61 172.286 211.981 171.595C210.352 170.903 208.83 169.734 207.908 168.054L208.22 167.437ZM263.365 245.22C263.315 245.417 263.454 245.605 263.581 245.749L265.505 247.925C265.715 247.299 265.48 246.571 265.076 246.084C264.673 245.597 264.128 245.3 263.596 245.015C263.492 245.02 263.395 245.107 263.365 245.22Z" fill="#00160A"/>
<path fill-rule="evenodd" clip-rule="evenodd" d="M389.733 160.573C392.09 161.504 394.311 159.081 396.342 157.43C399.485 154.876 403.586 153.911 407.36 154.836C407.986 154.989 408.642 155.219 409.054 155.778C409.431 156.288 409.538 156.985 409.599 157.649C409.971 161.712 409.079 165.91 407.119 169.33C406.165 170.994 404.97 172.475 404.117 174.209C403.264 175.942 402.777 178.06 403.385 179.922C406.997 190.997 405.494 204.06 399.497 213.698C393.5 223.337 383.181 229.276 372.816 229.055C367.515 228.942 362.321 227.329 357.326 225.301C355.147 224.417 352.751 223.446 350.588 224.38C346.641 226.085 342.485 227.162 338.279 227.569C337.236 227.67 336.145 227.722 335.182 227.252C333.741 226.549 332.87 224.768 332.705 222.991C332.539 221.214 332.97 219.435 333.515 217.759C335.157 212.704 340.256 204.808 343.343 202.989C343.093 196.85 343.12 190.64 344.285 184.64C345.449 178.64 347.826 172.818 351.724 168.572C353.334 166.819 355.177 165.359 357.107 164.093C366.87 157.687 379.09 156.369 389.733 160.573ZM374.867 160.074C367.401 160.273 360.135 163.691 354.299 169C352.586 170.559 350.975 172.291 349.689 174.315C348.675 175.91 347.874 177.67 347.204 179.486C343.229 190.26 344.137 203.204 349.562 213.122C349.68 213.338 349.816 213.568 350.027 213.652C350.287 213.755 350.568 213.604 350.811 213.456C367.85 203.108 383.017 188.775 395.095 171.608C395.382 171.199 395.685 170.724 395.623 170.205C395.576 169.815 395.332 169.499 395.094 169.214C389.941 163.056 382.332 159.875 374.867 160.074ZM385.303 224.39C393.396 220.06 399.543 211.503 402.172 201.764C402.767 199.559 403.195 197.279 403.237 194.972C403.273 193.033 403.035 191.101 402.798 189.18C402.455 186.394 402.111 183.608 401.768 180.823C401.677 180.084 401.052 179.109 400.596 179.644C387.933 194.496 374.106 208.057 359.333 220.114C358.841 220.515 358.3 221.012 358.274 221.7C358.243 222.497 358.91 223.075 359.517 223.473C367.262 228.563 377.21 228.72 385.303 224.39ZM335.382 223.256C335.971 224.333 337.247 224.553 338.36 224.588C344.196 224.772 349.97 222.823 355.192 219.846C360.413 216.87 365.139 212.888 369.732 208.78C375.858 203.301 381.8 197.559 387.592 191.626C394.765 184.279 401.812 176.486 406.522 166.895C407.433 165.039 408.273 163.005 408.131 160.885C407.988 158.765 406.505 156.625 404.641 156.708C400.685 156.884 396.795 158.617 393.785 161.546C393.186 162.129 393.609 163.369 394.346 163.684C395.083 163.999 395.904 163.686 396.625 163.324C397.345 162.961 398.095 162.538 398.877 162.637C400.073 162.788 400.922 164.183 400.993 165.551C401.064 166.919 400.533 168.234 399.908 169.405C398.75 171.572 397.238 173.46 395.71 175.305C382.129 191.703 366.462 205.853 349.353 217.177C347.812 218.196 346.253 219.197 344.594 219.94C343.725 220.329 342.727 220.642 341.879 220.197C340.487 219.466 340.375 217.239 340.793 215.558C341.42 213.035 342.774 210.754 344.597 209.154C344.252 208.045 343.907 206.937 343.561 205.829C339.063 209.103 335.905 214.674 335.136 220.694C335.025 221.563 334.975 222.511 335.382 223.256ZM348.174 215.65C348.206 215.536 348.148 215.417 348.091 215.315C347.51 214.263 346.929 213.21 346.348 212.158C346.085 211.682 345.576 211.143 345.182 211.481C343.761 212.7 342.744 214.516 342.372 216.499C342.299 216.89 342.256 217.326 342.443 217.665C342.791 218.295 343.621 218.154 344.236 217.903C345.546 217.368 346.809 216.68 347.996 215.853C348.07 215.802 348.148 215.743 348.174 215.65ZM398.732 165.554C398.673 165.281 398.388 165.162 398.141 165.15C397.392 165.113 396.61 165.814 396.657 166.667C396.705 167.519 397.817 168.056 398.281 167.386C398.421 167.183 398.481 166.925 398.537 166.675C398.592 166.428 398.647 166.18 398.703 165.933C398.73 165.809 398.758 165.679 398.732 165.554Z" fill="#00160A"/>
</svg>
