<svg width="211" height="185" viewBox="0 0 211 185" fill="none" xmlns="http://www.w3.org/2000/svg">
<g opacity="0.1">
<path opacity="0.1" d="M210 -29.903L210 173.586" stroke="#20263C" stroke-miterlimit="10" stroke-dasharray="5.77 5.77"/>
<path opacity="0.1" d="M210 178.797V184.225H205.068" stroke="#20263C" stroke-miterlimit="10"/>
<path opacity="0.1" d="M195.598 184.225L10.6674 184.225" stroke="#20263C" stroke-miterlimit="10" stroke-dasharray="5.77 5.77"/>
<path opacity="0.1" d="M5.93237 184.225H1.00003L1.00003 178.797" stroke="#20263C" stroke-miterlimit="10"/>
<path opacity="0.1" d="M1 168.376L1 -35.1318" stroke="#20263C" stroke-miterlimit="10" stroke-dasharray="5.77 5.77"/>
</g>
<path d="M105.681 103.585L92.8403 95.4255L86.3296 99.5507L105.681 111.854L138.004 91.3004L131.526 87.1752L105.681 103.585Z" fill="#39CAA9"/>
<path d="M79.8516 95.4255L105.681 79.0154L118.521 87.1752L125.016 83.0501L105.681 70.7651L73.3409 91.3004L79.8516 95.4255Z" fill="#414042"/>
<path d="M132.809 67.8158L139.303 71.9409V47.3709L106.98 26.8176V35.0679L132.809 51.4961V67.8158Z" fill="#414042"/>
<path d="M139.303 80.1916L113.474 63.7815V47.4618L106.98 43.3185V67.9066L139.303 88.4419V80.1916Z" fill="#414042"/>
<path d="M85.0306 71.9412V80.1915L104.382 67.9065V26.8179L97.8876 30.943V63.7814L85.0306 71.9412Z" fill="#39CAA9"/>
<path d="M78.5528 84.3167V51.4965L91.3933 43.3185V35.0682L72.0421 47.3713V88.4419L78.5528 84.3167Z" fill="#414042"/>
</svg>
